<svg xmlns="http://www.w3.org/2000/svg" viewBox="0 0 100 100">
  <path fill="#f59e0b" d="M50,0C22.4,0,0,22.4,0,50s22.4,50,50,50s50-22.4,50-50S77.6,0,50,0z M50,80c-16.6,0-30-13.4-30-30
    s13.4-30,30-30s30,13.4,30,30S66.6,80,50,80z"/>
  <path fill="#f59e0b" d="M65,35c0,0-5-15-15-15s-15,15-15,15s-5,0-5,10s5,10,5,10s5,15,15,15s15-15,15-15s5,0,5-10s-5-10-5-10z
    M50,65c-8.3,0-15-6.7-15-15s6.7-15,15-15s15,6.7,15,15S58.3,65,50,65z"/>
  <circle fill="#f59e0b" cx="40" cy="45" r="5"/>
  <circle fill="#f59e0b" cx="60" cy="45" r="5"/>
  <path fill="#f59e0b" d="M50,55c-2.8,0-5,2.2-5,5h10C55,57.2,52.8,55,50,55z"/>
</svg>
